<svg xmlns="http://www.w3.org/2000/svg" version="1.1" xmlns:xlink="http://www.w3.org/1999/xlink" xmlns:svgjs="http://svgjs.com/svgjs" width="1000" height="1000"><rect width="1000" height="1000" rx="250" ry="250" fill="#ffffff"></rect><g transform="matrix(0.8888888888888888,0,0,0.8888888888888888,99.6999986436632,100.00000487433545)"><svg xmlns="http://www.w3.org/2000/svg" version="1.1" xmlns:xlink="http://www.w3.org/1999/xlink" xmlns:svgjs="http://svgjs.com/svgjs" width="900" height="900"><svg version="1.1" id="Warstwa_1" xmlns="http://www.w3.org/2000/svg" xmlns:xlink="http://www.w3.org/1999/xlink" x="0px" y="0px" viewBox="0 0 900 900" style="enable-background:new 0 0 900 900;" xml:space="preserve">
<style type="text/css">
	.st0{display:none;}
	.st1{display:none;fill:none;stroke:#000000;stroke-miterlimit:10;}
	.st2{fill:#FFFFFF;}
	.st3{fill:none;stroke:#000000;stroke-miterlimit:10;}
</style>
<path class="st0" d="M438.5,18.6c-7.2,1.5-23.2,8.7-36.7,16.7c-4,2.4-8,4.6-8.8,5c-0.8,0.4-2.2,1.1-3,1.7c-0.8,0.5-6.2,3.7-12,7
	c-5.8,3.3-11.2,6.5-12,7c-0.8,0.6-2.2,1.3-3,1.7c-0.8,0.4-4.8,2.6-8.8,5c-4.1,2.4-7.5,4.3-7.7,4.3c-0.2,0-2.4,1.3-4.8,3
	c-2.5,1.6-4.7,3-5,3c-0.5,0-24.5,13.9-27.7,16c-0.8,0.6-2.2,1.3-3,1.7c-1.6,0.7-20.6,11.7-23,13.3c-0.8,0.6-2.4,1.4-3.5,1.9
	s-7.3,4.1-13.8,8s-12,7.1-12.2,7.1c-0.3,0-4.9,2.6-10.2,5.8c-5.4,3.2-10.5,6.1-11.3,6.5s-2.8,1.6-4.5,2.7c-1.6,1.1-3.9,2.4-5,2.9
	c-1.2,0.5-6.3,3.4-11.3,6.5c-5.1,3.1-9.4,5.6-9.7,5.6c-0.2,0-4.8,2.6-10.2,5.8s-10.5,6.1-11.3,6.5s-2.8,1.6-4.5,2.7
	c-1.6,1.1-4.3,2.6-6,3.4c-1.6,0.8-5.2,2.9-8,4.5c-2.7,1.7-5.9,3.5-7,4.1c-1.1,0.5-2.7,1.4-3.5,2c-2.2,1.4-16.3,9.5-18,10.3
	c-0.8,0.4-2.8,1.6-4.5,2.7c-1.6,1.1-3.7,2.3-4.5,2.7c-0.8,0.3-7.6,4.2-15,8.6c-23.5,13.9-32.7,21.7-37.8,32.2
	c-5.9,12.3-5.7,3.3-5.7,215c0,185.3,0.1,194.3,1.9,201.8c1,4.2,2.2,8,2.7,8.3c0.5,0.3,0.9,1.2,0.9,2c0,1.5,2.8,6,6.5,10.3
	c3.6,4.2,16.7,13.5,30,21.5c7.2,4.2,13.7,8.1,14.5,8.7c0.8,0.5,2.2,1.2,3,1.6c1.6,0.7,20.5,11.7,23,13.3c0.8,0.6,2.2,1.3,3,1.7
	c0.8,0.4,5.9,3.3,11.3,6.5s10,5.8,10.2,5.8c0.3,0,3.8,2,7.8,4.5c4.1,2.5,7.7,4.5,8,4.5s2.6,1.3,5,3c2.5,1.6,4.7,3,5,3
	c0.5,0,19.1,10.7,22.7,13c0.8,0.6,2.4,1.5,3.5,2c1.1,0.6,4.3,2.4,7,4.1c2.8,1.6,6.4,3.7,8,4.5c1.7,0.8,4.4,2.3,6,3.4
	c1.7,1.1,3.7,2.3,4.5,2.7c1.6,0.8,20.6,11.8,23,13.3c0.8,0.6,2.2,1.3,3,1.7c0.8,0.4,5.9,3.3,11.3,6.5c5.3,3.2,9.9,5.8,10.1,5.8
	c0.4,0,24.4,14,27.6,16c0.8,0.6,2.2,1.3,3,1.7c0.8,0.4,6.9,3.9,13.5,7.8s12.7,7.4,13.5,7.8c0.8,0.4,2.9,1.6,4.5,2.7
	c1.7,1.1,3.7,2.3,4.5,2.7c0.8,0.4,4.4,2.4,7.9,4.6c3.5,2.1,7.4,4.3,8.5,4.8c1.2,0.6,3,1.5,4.1,2.2c15.8,9.4,27.9,16.2,34.5,19.3
	c3,1.5,6.3,3.1,7.4,3.6c4.9,2.6,14.5,4.8,20.5,4.8s16-2.4,20.8-4.9c1-0.5,4.1-2,7-3.4c8.4-4.1,23.8-12.6,29.8-16.5
	c1.1-0.6,2.7-1.5,3.5-1.9c1.4-0.6,19.7-11.3,23-13.3c0.8-0.6,2.2-1.3,3-1.7c0.8-0.4,5.8-3.2,11-6.3s10.2-5.9,11-6.3
	c0.8-0.4,2.9-1.6,4.5-2.7c1.7-1.1,3.7-2.3,4.5-2.7c0.8-0.4,4.7-2.5,8.5-4.8c3.9-2.2,7.7-4.4,8.5-4.8c0.8-0.4,2.9-1.6,4.5-2.7
	c1.7-1.1,3.7-2.3,4.5-2.7c0.8-0.4,7.1-4,13.9-8c6.7-4,12.5-7.3,12.7-7.3c0.4,0,24.5-14.1,27.4-16c0.8-0.6,2.4-1.4,3.6-1.9
	c1.9-0.8,13.6-7.6,17.4-10.1c0.8-0.6,2.2-1.3,3-1.7c0.8-0.4,5.8-3.2,11-6.3s10.2-5.9,11-6.3c0.8-0.4,2.9-1.6,4.5-2.7
	c1.7-1.1,3.7-2.3,4.5-2.7c1.7-0.8,20.7-11.8,23-13.3c0.8-0.6,2.2-1.3,3-1.7c0.8-0.4,7.1-4,13.8-8c6.8-4,12.6-7.3,12.8-7.3
	c0.4,0,14.8-8.3,17.4-10c0.8-0.6,2.4-1.5,3.5-2c1.1-0.6,3.4-1.9,5-2.9c1.7-1.1,5.3-3.2,8-4.6c7-3.8,17-10.5,23.9-16.2
	c10.7-8.7,15.5-18.1,17.6-34.6c1.6-12.5,1.3-380.7-0.3-392.2c-2.4-16.7-9.1-26.4-26.6-38.3c-5-3.4-9.3-6.2-9.5-6.2
	c-0.4,0-24.4-14-27.6-16c-0.8-0.6-2.2-1.3-3-1.7c-0.8-0.4-4.4-2.4-7.9-4.6c-3.5-2.1-7.4-4.3-8.5-4.8c-1.2-0.5-3.4-1.8-5.1-2.9
	c-1.6-1.1-3.7-2.3-4.5-2.7s-4.7-2.6-8.6-5c-3.9-2.4-7.5-4.3-7.9-4.3c-0.4,0-2.7-1.4-5.2-3c-2.4-1.7-4.6-3-4.8-3s-3.6-1.9-7.7-4.3
	c-4-2.4-8-4.7-8.8-5.1c-0.8-0.4-2.4-1.2-3.5-1.9c-1.1-0.7-6.3-3.7-11.5-6.7s-10.4-6-11.5-6.7c-1.1-0.7-2.7-1.5-3.5-1.9
	c-0.8-0.4-4.4-2.5-7.9-4.7c-3.5-2.1-7.4-4.3-8.5-4.8c-1.2-0.5-3.4-1.8-5.1-2.9c-1.6-1.1-3.7-2.3-4.5-2.7c-1.6-0.8-20.6-11.8-23-13.3
	c-0.8-0.6-2.2-1.3-3-1.7s-5.8-3.2-11-6.3c-5.2-3.1-10.2-5.9-11-6.3s-2.8-1.6-4.5-2.7c-1.6-1.1-3.7-2.3-4.5-2.7s-4.4-2.4-7.9-4.6
	c-3.5-2.1-7.4-4.3-8.5-4.8c-1.2-0.5-3.4-1.8-5.1-2.9c-1.6-1.1-3.7-2.3-4.5-2.7c-1.8-0.8-20.8-11.9-23-13.3c-0.8-0.6-2.2-1.3-3-1.7
	s-5.5-3.1-10.5-6.1c-4.9-3-9.8-5.8-11-6.3c-1.1-0.5-2.9-1.5-4-2.1c-11-7.1-33.3-18.8-35.7-18.8c-0.8,0-1.8-0.4-2.4-1
	c-0.8-0.8-16-4.2-17.4-3.9C445.7,17.2,442.4,17.9,438.5,18.6z M453.5,141.6c3.4,0.5,20.4,8.2,25.5,11.4c3,2,21.5,12.7,23,13.3
	c0.8,0.4,2.9,1.6,4.5,2.6c1.7,1.1,5,3.1,7.5,4.4c2.5,1.4,6.1,3.4,8,4.6c1.9,1.1,4.2,2.4,5,2.8c0.8,0.4,5.8,3.2,11,6.3
	c5.2,3.1,10.2,6,11,6.4c0.8,0.4,2.4,1.2,3.5,1.9c10.3,6.2,27.9,16.3,35,20.2c2.2,1.1,5.8,3.2,8,4.6s4.7,2.8,5.5,3.2
	c0.8,0.4,2.2,1.1,3,1.7c2.8,1.9,27,16,27.4,16c0.2,0,4.8,2.6,10.3,5.8c5.4,3.2,10.5,6.1,11.3,6.5c0.8,0.4,2.2,1.1,3,1.7
	c2.3,1.5,21.3,12.5,23,13.3c0.8,0.4,2.9,1.6,4.5,2.6c1.7,1.1,4.8,2.9,7,4.1c19.8,10.9,27.5,20.1,28.8,34.5c1,10.1,1.1,277,0.1,283.5
	c-1.5,11.2-6.4,17.8-19.7,26.7c-4,2.6-7.9,5.1-8.7,5.6c-0.8,0.4-2.8,1.6-4.5,2.7c-1.6,1.1-3.9,2.4-5.1,2.9
	c-1.9,0.8-13.6,7.6-17.4,10.1c-0.8,0.6-2.4,1.4-3.5,1.9c-1.2,0.5-6.2,3.4-11.3,6.5c-14.5,8.8-19.7,8.5-24.4-1.1l-2.3-4.8L621.9,513
	c-0.4-75.4-1-132.8-1.6-136c-2-11.7-8.5-19.9-21.6-27.5c-3.4-2-6.9-4-7.7-4.5s-4-2.2-7-3.8c-3-1.6-8.2-4.4-11.5-6.2
	c-3.3-1.8-8.5-4.6-11.5-6.2c-11.6-6.3-19.7-10.7-26-14.2c-11.5-6.4-21-10.6-23.9-10.6c-1.6,0-3.9,0.8-5.1,1.8
	c-4.6,3.7-5,7.1-5.1,48.7c-0.1,21.4-0.4,40.1-0.8,41.5c-0.3,1.4-1.4,3.6-2.4,5c-1.5,2.2-2.5,2.5-8,2.5c-6.6-0.1-7.4-0.4-25.2-11
	c-3.8-2.2-7.7-4.4-8.5-4.8c-0.8-0.4-2.8-1.6-4.5-2.7c-1.6-1.1-3.7-2.3-4.5-2.7c-0.8-0.4-4.7-2.6-8.6-5c-3.9-2.4-7.4-4.3-7.7-4.3
	c-0.3,0-2.5-1.2-4.9-2.8c-5.6-3.6-7.5-4.7-12.3-7.3c-4.4-2.3-11.3-7.5-13.3-9.9c-2.2-2.6-4.5-7.4-5.3-11c-1.3-5.7-1.3-165.9,0-170.8
	c2-7.1,9.3-12.8,32.1-24.8c7.4-3.9,16.7-6.5,20.5-5.9C448.6,140.7,451.3,141.2,453.5,141.6z M265.9,247.1c1.7,1.7,3.1,3.5,3.1,4.1
	c0,0.5,0.7,2.4,1.5,4.1c1.2,2.8,1.5,21.6,1.8,133.7c0.4,137.1,0.4,137,4.7,145.1c3.2,5.9,11.2,13.5,17,16.2c0.8,0.4,3.1,1.7,5,2.8
	c1.9,1.2,6,3.5,9,5.1c11.8,6.4,19.8,10.8,26,14.2c3.6,2,8.8,4.8,11.5,6.2c2.8,1.4,7.5,4,10.7,5.7c18.4,10.3,20.1,11.1,26,11.1
	c5,0.1,6-0.2,7.5-2.4c1-1.4,2.1-3.6,2.4-5c0.4-1.4,0.7-19.8,0.8-41c0.1-24.3,0.5-40,1.2-42.5c1.4-5,5.3-8.4,9.7-8.5
	c3.6,0,16,5.8,25.7,12c1.7,1.1,3.7,2.3,4.5,2.7c0.8,0.4,5.5,3.1,10.5,6.1c4.9,3,9.8,5.8,11,6.3c2.6,1.2,9.9,5.5,15,8.8
	c2.2,1.4,6.2,3.7,8.8,5.1c8.8,4.6,15.1,10.3,18.3,16.6l2.9,5.9V644c0,80.3-0.1,84.7-1.8,87.9c-3.7,6.6-11.3,12-31.2,21.8
	c-11.2,5.6-13.5,6.3-19.8,6.3c-7.4,0-14.5-2.5-27.5-9.7c-4.8-2.6-9.4-5.1-10.2-5.6c-0.8-0.4-2.8-1.6-4.5-2.7
	c-1.6-1.1-3.7-2.3-4.5-2.7c-0.8-0.4-4.6-2.6-8.5-4.8c-3.8-2.3-7.7-4.4-8.5-4.8c-0.8-0.4-2.2-1.1-3-1.7c-3.8-2.5-20.6-12.3-22.5-13.1
	c-1.1-0.5-2.7-1.3-3.5-1.9c-2.7-1.8-22-13-22.4-13c-0.2,0-6.1-3.4-13.1-7.5c-6.9-4.1-12.8-7.5-13-7.5c-0.3,0-4.6-2.5-9.7-5.6
	c-5-3.1-10.1-6-11.3-6.5c-1.1-0.5-3.3-1.8-5-2.9c-1.6-1.1-3.7-2.3-4.5-2.7c-0.8-0.4-4.4-2.4-7.9-4.6c-3.5-2.1-7.4-4.3-8.5-4.8
	c-1.2-0.5-3.4-1.8-5.1-2.9c-1.6-1.1-3.7-2.3-4.5-2.7c-0.8-0.4-5.9-3.3-11.3-6.5c-5.3-3.2-9.9-5.8-10.1-5.8s-4.8-2.6-10.3-5.8
	c-5.4-3.2-10.5-6.2-11.3-6.6c-5.4-2.6-19.1-12.1-23.2-16.1c-4.9-4.8-6.7-8.4-8.6-17c-1.3-6.1-1.6-24.9-1.9-140.5
	c-0.3-119.8-0.2-134.6,1.3-144c1.3-8.6,2.2-11.3,5-15.6c1.8-2.8,4.2-5.8,5.1-6.6c2.2-1.9,14.3-10.1,16.3-11.1
	c0.8-0.4,2.9-1.6,4.5-2.7c1.7-1.1,3.7-2.3,4.5-2.7c0.8-0.3,5.9-3.3,11.3-6.5s9.9-5.8,10.2-5.8c0.2,0,4.8-2.6,10.2-5.8
	c5.5-3.1,11.3-6.4,12.9-7.4C259.2,243.2,262.4,243.6,265.9,247.1z"></path>
<line class="st1" x1="621.8" y1="450" x2="447.3" y2="554.6"></line>
<g id="XMLID_00000039823685946328133210000010932414658356302241_">
	<g>
		<path d="M173.8,592.3c0,9.7,5.1,18.6,13.5,23.4L433.8,758c8.4,4.8,18.7,4.8,27,0l246.4-142.3c8.4-4.8,13.5-13.8,13.5-23.4V307.8
			c0-4.8-1.3-9.5-3.6-13.5c-2.3-4-5.7-7.5-9.9-9.9L460.8,142.1c-8.4-4.8-18.7-4.8-27,0L187.4,284.4c-4.2,2.4-7.6,5.9-9.9,9.9
			c-2.3,4-3.6,8.7-3.6,13.5V592.3z M829.1,258.5v383.1c0,17.9-9.5,34.4-25,43.3L472.3,876.4c-15.5,8.9-34.5,8.9-50,0L90.5,684.9
			c-15.5-8.9-25-25.5-25-43.3V258.5c0-8.9,2.4-17.5,6.7-25c4.3-7.5,10.6-13.8,18.3-18.3L422.3,23.6c15.5-8.9,34.5-8.9,50,0
			L804,215.2c7.7,4.5,14,10.8,18.3,18.3C826.7,241,829.1,249.6,829.1,258.5z"></path>
		<path d="M606.4,340.4c4.8,2.8,8.6,6.7,11.3,11.3L447.3,450L360,399.7v102.7l87.3,52.3l174.5-98.2V533c0,11-5.9,21.2-15.5,26.8
			l-143.6,82.9c-4.8,2.8-10.1,4.1-15.4,4.1s-10.7-1.4-15.4-4.1L360,601.2l-71.8-41.5c-9.6-5.5-15.5-15.7-15.5-26.8V367.1
			c0-5.5,1.5-10.8,4.1-15.4c2.7-4.6,6.5-8.6,11.3-11.3l143.6-82.9c9.6-5.5,21.3-5.5,30.9,0L606.4,340.4z"></path>
		<path class="st2" d="M431.8,642.7c4.8,2.8,10.1,4.1,15.4,4.1s10.7-1.4,15.4-4.1l143.6-82.9c9.6-5.5,15.5-15.7,15.5-26.8v-76.5
			l-174.5,98.2L360,502.3V399.7l87.3,50.4l170.4-98.4c-2.7-4.6-6.5-8.6-11.3-11.3l-143.6-82.9c-9.5-5.5-21.3-5.5-30.9,0l-143.6,82.9
			c-4.8,2.8-8.6,6.7-11.3,11.3c-2.7,4.6-4.1,9.9-4.1,15.4V533c0,11,5.9,21.2,15.5,26.8l71.8,41.5L431.8,642.7z M460.8,142.1
			l246.4,142.3c4.2,2.4,7.6,5.9,9.9,9.9c2.3,4,3.6,8.7,3.6,13.5v284.5c0,9.7-5.1,18.6-13.5,23.4L460.8,758c-8.4,4.8-18.7,4.8-27,0
			L187.4,615.7c-8.4-4.8-13.5-13.8-13.5-23.4V307.8c0-4.8,1.3-9.5,3.6-13.5c2.3-4,5.7-7.5,9.9-9.9l246.4-142.3
			C442.1,137.3,452.4,137.3,460.8,142.1z"></path>
	</g>
	<g>
		<path class="st3" d="M822.4,233.5c-4.3-7.5-10.6-13.8-18.3-18.3L472.3,23.6c-15.5-8.9-34.5-8.9-50,0L90.5,215.2
			c-7.7,4.5-14,10.8-18.3,18.3c-4.3,7.5-6.7,16.1-6.7,25v383.1c0,17.9,9.5,34.4,25,43.3l331.8,191.5c15.5,8.9,34.5,8.9,50,0
			L804,684.9c15.5-8.9,25-25.5,25-43.3V258.5C829.1,249.6,826.7,241,822.4,233.5z"></path>
		<path class="st3" d="M720.7,592.3V307.8c0-4.8-1.3-9.5-3.6-13.5c-2.3-4-5.7-7.5-9.9-9.9L460.8,142.1c-8.4-4.8-18.7-4.8-27,0
			L187.4,284.4c-4.2,2.4-7.6,5.9-9.9,9.9c-2.3,4-3.6,8.7-3.6,13.5v284.5c0,9.7,5.1,18.6,13.5,23.4L433.8,758c8.4,4.8,18.7,4.8,27,0
			l246.4-142.3C715.6,610.9,720.7,602,720.7,592.3z"></path>
		<path class="st3" d="M621.8,456.4V533c0,11-5.9,21.2-15.5,26.8l-143.6,82.9c-4.8,2.8-10.1,4.1-15.4,4.1s-10.7-1.4-15.4-4.1
			L360,601.2l-71.8-41.5c-9.6-5.5-15.5-15.7-15.5-26.8V367.1c0-5.5,1.5-10.8,4.1-15.4c2.7-4.6,6.5-8.6,11.3-11.3l143.6-82.9
			c9.6-5.5,21.3-5.5,30.9,0l143.6,82.9c4.8,2.8,8.6,6.7,11.3,11.3L447.3,450L360,399.7v102.7l87.3,52.3L621.8,456.4z"></path>
	</g>
</g>
</svg></svg></g></svg>